<svg width="26" height="27" viewBox="0 0 26 27" fill="none" xmlns="http://www.w3.org/2000/svg">
<g filter="url(#filter0_d_141_142)">
<path fill-rule="evenodd" clip-rule="evenodd" d="M12.0625 3.4375C8.9559 3.4375 6.4375 5.9559 6.4375 9.0625C6.4375 12.1691 8.9559 14.6875 12.0625 14.6875C15.1691 14.6875 17.6875 12.1691 17.6875 9.0625C17.6875 5.9559 15.1691 3.4375 12.0625 3.4375ZM4.5625 9.0625C4.5625 4.92036 7.92036 1.5625 12.0625 1.5625C16.2046 1.5625 19.5625 4.92036 19.5625 9.0625C19.5625 13.2046 16.2046 16.5625 12.0625 16.5625C7.92036 16.5625 4.5625 13.2046 4.5625 9.0625Z" fill="#00B37E"/>
<path fill-rule="evenodd" clip-rule="evenodd" d="M16.0402 13.0402C16.4063 12.6741 16.9999 12.6741 17.366 13.0402L21.1629 16.8371C21.529 17.2032 21.529 17.7968 21.1629 18.1629C20.7968 18.529 20.2032 18.529 19.8371 18.1629L16.0402 14.366C15.6741 13.9999 15.6741 13.4063 16.0402 13.0402Z" fill="#00B37E"/>
</g>
<defs>
<filter id="filter0_d_141_142" x="-1" y="0" width="28" height="28" filterUnits="userSpaceOnUse" color-interpolation-filters="sRGB">
<feFlood flood-opacity="0" result="BackgroundImageFix"/>
<feColorMatrix in="SourceAlpha" type="matrix" values="0 0 0 0 0 0 0 0 0 0 0 0 0 0 0 0 0 0 127 0" result="hardAlpha"/>
<feOffset dy="4"/>
<feGaussianBlur stdDeviation="2"/>
<feComposite in2="hardAlpha" operator="out"/>
<feColorMatrix type="matrix" values="0 0 0 0 0 0 0 0 0 0 0 0 0 0 0 0 0 0 0.25 0"/>
<feBlend mode="normal" in2="BackgroundImageFix" result="effect1_dropShadow_141_142"/>
<feBlend mode="normal" in="SourceGraphic" in2="effect1_dropShadow_141_142" result="shape"/>
</filter>
</defs>
</svg>
